<?xml version="1.0" standalone="no"?>
<!DOCTYPE svg PUBLIC "-//W3C//DTD SVG 20010904//EN"
 "http://www.w3.org/TR/2001/REC-SVG-20010904/DTD/svg10.dtd">
<svg version="1.0" xmlns="http://www.w3.org/2000/svg"
 width="200.000000pt" height="200.000000pt" viewBox="0 0 200.000000 200.000000"
 preserveAspectRatio="xMidYMid meet">
<metadata>
Created by potrace 1.11, written by Peter Selinger 2001-2013
</metadata>
<g transform="translate(0.000000,200.000000) scale(0.100000,-0.100000)"
fill="#000000" stroke="none">
<path d="M1049 1962 c-2 -81 -10 -132 -33 -223 -33 -129 -79 -237 -143 -333
-29 -43 -53 -82 -53 -85 0 -4 41 -47 90 -96 l90 -90 315 315 c173 173 315 318
315 322 0 13 -97 77 -175 117 -118 59 -228 91 -357 105 l-48 5 -1 -37z"/>
<path d="M827 1984 c-1 -2 -18 -6 -37 -9 -58 -10 -187 -55 -248 -87 -64 -34
-172 -108 -172 -117 0 -3 69 -75 154 -160 l154 -154 37 58 c68 106 112 223
129 350 17 117 17 122 1 122 -8 0 -16 -2 -18 -3z"/>
<path d="M172 1558 c-72 -108 -122 -225 -148 -348 -17 -78 -17 -77 166 -45 93
16 204 62 298 123 l54 35 -154 154 c-84 84 -156 153 -160 153 -4 0 -29 -33
-56 -72z"/>
<path d="M1450 1315 l-315 -315 90 -90 c49 -49 94 -90 98 -90 5 0 30 15 56 34
149 109 391 189 594 195 27 1 27 2 22 49 -16 137 -57 267 -118 382 -32 61 -95
150 -105 150 -4 0 -149 -142 -322 -315z"/>
<path d="M634 1154 c-61 -48 -191 -115 -280 -144 -104 -33 -233 -57 -316 -59
l-37 -1 4 -47 c17 -174 102 -392 199 -508 l25 -30 318 317 318 318 -90 90
c-49 49 -94 90 -100 90 -5 -1 -24 -12 -41 -26z"/>
<path d="M681 546 c-172 -173 -311 -319 -307 -324 11 -18 138 -98 196 -124
113 -51 219 -81 328 -93 51 -5 52 -5 53 22 9 218 87 454 198 599 l39 52 -92
91 c-50 50 -94 91 -96 91 -3 0 -146 -141 -319 -314z"/>
<path d="M1910 850 c-116 -16 -197 -36 -275 -71 -42 -19 -148 -80 -162 -94 -9
-9 26 -49 143 -166 l155 -154 29 35 c16 19 48 68 71 108 67 117 134 341 104
347 -5 1 -35 -1 -65 -5z"/>
<path d="M1283 478 c-70 -113 -114 -233 -128 -353 -3 -27 -8 -65 -10 -83 -5
-36 -13 -34 79 -17 110 21 300 109 379 176 l32 28 -156 156 -156 157 -40 -64z"/>
</g>
</svg>
